<?xml version="1.0" encoding="utf-8"?>
<!-- Generator: Adobe Illustrator 18.0.0, SVG Export Plug-In . SVG Version: 6.00 Build 0)  -->
<!DOCTYPE svg PUBLIC "-//W3C//DTD SVG 1.1//EN" "http://www.w3.org/Graphics/SVG/1.1/DTD/svg11.dtd">
<svg version="1.1" id="Layer_1" xmlns="http://www.w3.org/2000/svg" xmlns:xlink="http://www.w3.org/1999/xlink" x="0px" y="0px"
	 viewBox="0 0 792 612" enable-background="new 0 0 792 612" xml:space="preserve">
<path fill="#0096D6" d="M127.7,330.8c0,0-4.6-7.4-8.2-12.6l-7.4-10.4c0,0-2.5-3.5-0.5-6.3l13.1-19.4c0,0,4.4-7.1,4.1-14.5
	c0,0,1.1-13.9-14.2-21.8l-28.9,42c0,0-6.8,11.2-6.5,18.8c0,0-0.3,7.6,5.7,15.3L95,336.6H62.2v-62h19.1l21-28.9
	c0,0-102.3,0.3-102.3,0v28.7h30.8v92h77.2c0,0,15,0,19.9-13.9C128,352.4,132.9,340.7,127.7,330.8z"/>
<g>
	<g>
		<path fill="#333333" d="M204.7,284.4v60.3H188v-60.3h-21.3V270h58.9v14.5H204.7z"/>
		<path fill="#333333" d="M277.8,336.3c-6.5,6-14.2,9.3-22.9,9.3c-8.7,0-15.8-2.7-21.6-8.2s-8.5-12.6-8.5-21.6s3-16.4,8.7-21.6
			c5.7-5.5,12.6-7.9,20.5-7.9s14.7,2.5,20.2,7.1c5.5,4.9,8.2,11.5,8.2,19.6v8.5h-42c0.5,3.3,2.2,5.7,4.9,7.6c2.7,1.9,6,3,9.3,3
			c5.7,0,10.4-1.9,13.9-5.7L277.8,336.3z M262.3,302.2c-2.2-1.9-4.9-2.7-8.2-2.7c-3.3,0-6,1.1-8.7,3c-2.7,1.9-4.1,4.6-4.6,7.9h25.1
			C265.8,306.8,264.5,304.1,262.3,302.2z"/>
		<path fill="#333333" d="M319.3,331.4c5.5,0,10.1-2.7,14.5-7.9l9.6,10.6c-7.4,7.6-15.6,11.5-24,11.5c-8.7,0-15.8-2.7-21.8-8.2
			c-6-5.5-9-12.6-9-21.3c0-8.7,3-16.1,9-21.6c6-5.5,13.1-8.2,21.6-8.2c4.1,0,8.5,0.8,12.6,2.5c4.4,1.6,7.9,4.4,11.2,7.6l-8.5,10.9
			c-1.9-2.2-4.1-3.8-6.8-5.2c-2.7-1.1-5.5-1.9-7.9-1.9c-4.1,0-7.9,1.4-10.9,4.1c-3,2.7-4.6,6.5-4.6,11.5s1.6,8.7,4.6,11.5
			C311.9,330,315.5,331.4,319.3,331.4z"/>
		<path fill="#333333" d="M367.9,313.6v31.1h-15.8v-79.4h16.1v28.1c4.9-4.9,10.4-7.4,16.4-7.4s11.2,2.2,15.3,6.5
			c4.1,4.4,6.3,10.1,6.3,17.2v34.9H390v-31.7c0-8.7-3.3-13.4-9.8-13.4c-3.3,0-6,1.1-8.5,3.5C369.3,305.7,367.9,309.3,367.9,313.6z"
			/>
	</g>
</g>
<g>
	<path fill="#333333" d="M454.7,344.8h-32.7V270h29.2c5.2,0,9.6,0.5,13.1,1.9c3.5,1.4,6.5,2.7,8.2,4.9c3.3,3.8,4.9,8.2,4.9,13.1
		c0,5.7-1.9,10.1-5.7,13.1c-1.4,1.1-2.2,1.6-2.7,1.9c-0.5,0.3-1.4,0.5-2.7,1.4c4.6,1.1,8.5,3,11.2,6.3c2.7,3.3,4.1,7.1,4.1,11.7
		c0,5.2-1.9,9.8-5.5,13.9C472.1,342.3,464.8,344.8,454.7,344.8z M438.6,300.3h7.9c4.6,0,8.2-0.5,10.4-1.4c2.2-1.1,3.3-3.3,3.3-6.5
		c0-3.3-1.1-5.5-3-6.5c-2.2-1.1-5.5-1.6-10.4-1.6h-7.9v16.1H438.6z M438.6,330.6H450c4.9,0,8.5-0.5,10.6-1.6
		c2.5-1.1,3.5-3.5,3.5-6.8s-1.4-5.7-3.8-6.8c-2.5-1.1-6.5-1.6-12-1.6h-9.8V330.6z"/>
	<path fill="#333333" d="M539.6,336.3c-6.5,6-14.2,9.3-22.9,9.3c-8.7,0-15.8-2.7-21.6-8.2c-5.7-5.5-8.5-12.6-8.5-21.6
		s3-16.4,8.7-21.6c5.7-5.5,12.6-7.9,20.5-7.9c7.9,0,14.7,2.5,20.2,7.1c5.5,4.9,8.2,11.5,8.2,19.6v8.5h-42c0.5,3.3,2.2,5.7,4.9,7.6
		c2.7,1.9,6,3,9.3,3c5.7,0,10.4-1.9,13.9-5.7L539.6,336.3z M524.3,302.2c-2.2-1.9-4.9-2.7-8.2-2.7s-6,1.1-8.7,3
		c-2.7,1.9-4.1,4.6-4.6,7.9h25.1C527.5,306.8,526.5,304.1,524.3,302.2z"/>
	<path fill="#333333" d="M602.6,344.8h-15v-6.8c-4.1,5.2-9.3,7.9-15.3,7.9s-11.2-1.6-15.3-5.2c-4.1-3.5-6.3-8.2-6.3-14.2
		c0-6,2.2-10.4,6.5-13.1c4.4-2.7,10.1-4.4,17.5-4.4h12v-0.3c0-6-3.3-9.3-9.8-9.3c-2.7,0-5.7,0.5-8.7,1.6c-3,1.1-5.7,2.5-7.9,4.1
		l-7.1-10.4c7.6-5.5,16.1-8.2,25.9-8.2c7.1,0,12.8,1.6,17.2,5.2c4.4,3.5,6.5,9,6.5,16.6v36.3H602.6z M586.5,322.6v-2.7h-10.1
		c-6.5,0-9.6,1.9-9.6,6c0,2.2,0.8,3.5,2.2,4.6c1.6,1.1,3.8,1.6,6.5,1.6s5.5-0.8,7.6-2.7C585.4,328.1,586.5,325.6,586.5,322.6z"/>
	<path fill="#333333" d="M641.6,331.4c5.5,0,10.1-2.7,14.5-7.9l9.6,10.6c-7.4,7.6-15.6,11.5-24,11.5c-8.7,0-15.8-2.7-21.8-8.2
		c-6-5.5-9-12.6-9-21.3c0-8.7,3-16.1,9-21.6c6-5.5,13.1-8.2,21.6-8.2c4.1,0,8.5,0.8,12.6,2.5c4.4,1.6,7.9,4.4,11.2,7.6l-8.5,10.9
		c-1.9-2.2-4.1-3.8-6.8-5.2c-2.7-1.1-5.5-1.9-7.9-1.9c-4.1,0-7.9,1.4-10.9,4.1s-4.6,6.5-4.6,11.5s1.6,8.7,4.6,11.5
		C634,330,637.5,331.4,641.6,331.4z"/>
	<path fill="#333333" d="M730.6,315.8c0,8.5-3,15.3-8.7,21c-5.7,5.7-13.1,8.5-21.8,8.5c-8.7,0-16.1-2.7-21.8-8.5
		c-5.7-5.7-8.7-12.8-8.7-21c0-8.5,3-15.3,8.7-21c5.7-5.7,13.1-8.7,21.8-8.7c8.7,0,16.1,3,21.8,8.7
		C727.9,300.5,730.6,307.6,730.6,315.8z M686.1,315.8c0,4.6,1.4,8.5,4.1,11.5s6,4.4,10.4,4.4c4.4,0,7.6-1.4,10.4-4.4
		c2.7-3,4.1-6.8,4.1-11.5s-1.4-8.5-4.1-11.5c-2.7-3-6-4.4-10.4-4.4s-7.6,1.4-10.4,4.4C687.2,307.4,686.1,311.2,686.1,315.8z"/>
	<path fill="#333333" d="M754.3,312.5v32.2h-16.1v-57.6h16.1v6.5c4.9-4.9,10.4-7.4,16.4-7.4c6,0,11.2,2.2,15.3,6.5
		c4.1,4.4,6.3,10.1,6.3,17.2V345h-16.1v-32.7c0-8.7-3.3-13.4-9.8-13.4c-3.3,0-6,1.1-8.5,3.5C755.4,304.9,754.3,308.2,754.3,312.5z"
		/>
</g>
</svg>
